<svg xmlns="http://www.w3.org/2000/svg" width="72" height="72" viewBox="0 0 72 72"><path fill="#E5DDD8" d="M32.708 23.322c-.02.059-.035.118-.055.181.3.174.473.074.706-.473.081.146.144.256.195.353l.686-.075c.322-.036.416-.456.134-.801.111-.016.24-.071.275-.034a.38.38 0 0 1 .096.281c-.01.144-.071.284-.111.424.244.093.331.017.342-.303.009-.167-.031-.459.027-.48.189-.067.415-.047.626-.037.164.008.374-.001.479.092.101.089.085.303.126.481l.185-.059c-.285-.61.105-.484.451-.45-.002.141-.013.259-.006.374.006.12.024.24.038.36.167-.029.339.095.507-.089.176-.192.426-.093.51.2l.145-.208c.059.103.108.188.178.306l.56-.191c-.077-.187-.13-.311-.183-.435.032-.015.067-.029.102-.044l.093.128.552-.062c-.034.166.041.262-.188.271-.277.011-.084.276-.109.414.301.078.591.156.927.244.032-.204.07-.415.108-.632.213.013.427-.003.529.252.023.058.121.104.191.122.238.06.597.028.693.175.23.341.598.06.846.3.233.225.582.326.859.512.277.183.535.398.793.611.533.438 1.063.883 1.591 1.33.031.03.042.088.063.136l-.245.004c.143.103.256.181.363.257l.018-.107c.284.008 1.708 2.021 1.642 2.404-.143-.229-.25-.397-.36-.575-.03.062-.065.142-.112.235l-.421-.528c.221.399.345.857.665 1.188l.076-.037a13.064 13.064 0 0 1-.047-.338.673.673 0 0 1 .048-.015l.421.634.16-.137c.416.525.545 1.164.77 1.766-.434-.11-.358-.58-.641-.81l.007.202-.043.016a41.9 41.9 0 0 1-.205-.43c-.026.016-.054.031-.083.047.199.355.139.865.673.941-.076.137-.165.229-.15.297.035.147.124.281.229.498-.137.358.072.917.489 1.086.017-.015.039-.036.039-.043-.129-.267-.267-.529-.385-.799-.028-.068-.036-.213-.005-.23.288-.159.074-.224-.045-.32-.057-.047-.088-.121-.136-.183.079-.046.152-.116.23-.126.052-.006.152.07.167.127.168.675.341 1.35.477 2.031.091.457.155.924.182 1.39.042.745.065 1.493.058 2.238-.009.552-.071 1.104-.125 1.657-.037.348-.101.695-.157 1.041-.009.052-.068.094-.084.146a6.886 6.886 0 0 0-.124.51c-.025.113-.022.236-.061.345-.266.817-.675 1.567-1.15 2.28a16.11 16.11 0 0 1-2.434 2.854c-.596.559-1.236 1.102-1.932 1.515-.806.476-1.684.839-2.557 1.181-.711.277-1.451.495-2.196.658-1.21.266-2.438.381-3.676.209-.895-.121-1.801-.19-2.677-.391-.625-.145-1.212-.459-1.81-.719-.475-.207-.96-.407-1.401-.674a25.516 25.516 0 0 1-1.807-1.211c-.354-.256-.682-.559-1.005-.855a3.38 3.38 0 0 1-.468-.564c.605.476 1.211.951 1.813 1.428.035-.035.07-.07.102-.105-.052-.074-.091-.171-.163-.224-.938-.708-1.704-1.589-2.416-2.509-.431-.559-.771-1.187-1.142-1.788-.453-.734-.678-1.564-.947-2.374-.489-1.462-.64-2.969-.576-4.5a12.71 12.71 0 0 1 .2-1.623c.114-.636.23-1.276.416-1.895.16-.541.381-1.074.645-1.576.36-.693.785-1.354 1.19-2.025.058-.094.15-.162.23-.246.342.44.458.502.647.342-.207-.123-.412-.242-.669-.393.222-.273.403-.536.623-.768.272-.291.638-.516.851-.841.278-.426.75-.584 1.076-.929.186-.196.366-.148.556.072.081.098.183.178.288.277l.257-.155.243.287c-.438.396-.826.87-1.322 1.167-.69.417-1.117 1.058-1.634 1.625a3.006 3.006 0 0 0-.326.451c-.584.938-1.157 1.877-1.446 2.961-.182.691-.405 1.372-.572 2.066-.062.268-.014.559-.025.84-.015.449-.081.9-.046 1.344.062.768.168 1.533.288 2.295.062.396.164.793.304 1.17.161.431.382.843.591 1.258.127.259.305.503.076.848.272-.21.333-.064.374.129l-.24.116.251.165c-.119.486.364.66.548.996l-.059-.365.783.958-.212-.006c.003.03-.008.067.006.081.326.299.318.74.468 1.113.019.047-.053.127-.041.182.019.075.095.203.115.196.125-.037.243-.104.381-.17-.321-.194-.446-.485-.251-.913.135.321.256.619.406.98.072-.115.093-.187.138-.215.069-.039.183-.089.226-.059.062.042.124.176.101.229-.08.162-.048.255.126.318l.046-.266c.249.207.471.386.685.574.021.018-.014.096-.025.168.06.039.161.111.271.188.247-.145.435-.092.583.201h-.255a.387.387 0 0 0-.028.047c.071.045.136.113.214.127.044.009.104-.068.163-.111.226.095.482.203.737.307.28.115.549.229.655.566.031.098.218.148.329.22l-.001-.093c.192-.031.403-.131.575-.082.495.144.974.354 1.466.518.106.035.245-.039.362-.023.571.074 1.139.181 1.711.232.219.02.448-.082.674-.121.128-.02.257-.034.386-.031.225.005.451.025.735.043l-.259.238c.283.108.283.108.417-.285.433-.077.853-.151 1.271-.232.03-.007.07-.051.078-.086.099-.359.302-.096.39-.027.098.078.178.229.03.396-.119.134-.175.326-.276.53.28.019.381-.099.433-.269.054-.197.049-.426.151-.59.087-.136.287-.209.446-.285.047-.021.134.043.2.072.042.016.083.041.121.062a1.326 1.326 0 0 0-.013-.135c.168-.141.318-.291.492-.406.067-.045.189-.01.313.027-.377.119-.169.436-.271.66.147 0 .288 0 .498-.002-.036-.162-.049-.312-.102-.445-.112-.286-.053-.409.251-.487.088-.022.168-.077.212-.097.064.188.134.385.204.582l.438-.18c-.008-.027-.013-.053-.019-.08l-.359-.039c.021-.393.25-.619.561-.765.142-.068.308-.085.51-.136-.001.01.008-.06.025-.166.083.081.188.139.181.182-.067.416.188.28.406.201l.062.313c.155-.075.293-.142.431-.207-.008-.028-.014-.057-.021-.085-.113.01-.227.017-.378.027.063-.121.108-.209.16-.299l-.656-.144v-.091c.179-.123.28-.396.591-.26.025.011.15-.098.143-.131-.064-.268.13-.298.301-.373.088-.037.15-.135.227-.203.072-.068.142-.174.228-.189.057-.01.142.1.211.162.174.153.346.31.549.492-.004-.281-.392-.672-.746-.781l.238-.287c.234-.286.462-.58.712-.853.068-.073.212-.078.319-.115l.312.327.09-.035c-.017-.104-.031-.207-.049-.312.046.021.093.039.142.059.123.099.246.196.419.331.023-.491-.428-.356-.569-.567-.002-.006-.032.006-.061.011.004.062.007.125.008.197l-.297.003c.01-.144-.022-.312.041-.427.172-.312.384-.604.588-.898.053-.073.14-.119.188-.159.015-.113.001-.24.05-.336.354-.67.653-1.362.818-2.099.182-.79.306-1.591.479-2.382.03-.135.167-.266.286-.357.146-.109.302-.182.101-.353l-.249.118c-.034-.096-.099-.191-.097-.285a10.62 10.62 0 0 0-.516-3.682c-.159-.486-.291-.987-.509-1.445a15.83 15.83 0 0 0-.981-1.723c-.28-.434-.631-.824-.943-1.237-.092-.118-.176-.222-.115-.413.064-.204-.079-.408-.291-.393-.398.028-.603-.26-.854-.455-.371-.288-.686-.659-1.077-.909-.505-.325-1.057-.59-1.609-.833-.72-.316-1.455-.589-2.19-.873-.104-.042-.229-.038-.344-.068a.25.25 0 0 1-.126-.088c-.031-.042-.039-.102-.057-.154-.055.053-.11.107-.169.167-.135-.047-.283-.1-.433-.151-.336.007-.704.136-.969-.274-.133.38-.437.17-.664.226-.018-.072-.035-.133-.057-.215-.194.308-.505.299-.758.272-.961-.105-1.88.117-2.796.33-.637.149-1.263.369-1.864.625-.486.207-.928.521-1.393.775-.089.047-.202.046-.304.066-.002-.119-.014-.239-.002-.356.005-.051.055-.1.143-.241-.23.034-.382.065-.531.075-.176.011-.354.004-.531.006.106-.138.198-.292.324-.407.287-.258.426-.237.682.069.158-.044.321-.076.476-.138.214-.088.275-.254.199-.477-.024-.079-.021-.168-.034-.253.104.011.277-.007.3.041.227.505.515.263.804.081l.22-.146-.364-.256c.487-.343.688-.421 1.037-.16-.138.161-.281.312-.408.479-.044.06-.043.152-.062.23.07.005.145-.001.211.018.417.125.416-.365.686-.465.121-.045.223-.142.333-.215l-.012-.001zm2.506-.16c.139.292.332.395.549.292.217-.104.332-.355.246-.538-.152-.318-.338-.453-.508-.366-.296.149-.397.37-.287.612zm6.247.831c.011-.023.023-.045.032-.068-.288-.124-.571-.259-.867-.366-.077-.026-.187.038-.279.062.098.105.268.309.277.303.264-.205.302.115.439.105l.398-.036zm1.549 22.453c-.308-.021-.546.127-.57.361.028-.01.054-.021.081-.027.074-.014.146-.024.221-.036-.031.069-.054.15-.103.205-.065.071-.153.122-.23.181.019.029.038.061.059.09l.89-.494-.053-.094c-.084.046-.161.111-.253.135-.168.041-.189-.125-.042-.321zm-2.071 1.457c-.35-.394-.682-.377-.929.059.323-.108.611.148.929-.059zM23.124 37.827c-.04.01-.078.021-.117.033.017.075.023.151.044.227.021.074.067.145.075.221.045.414.041.414.46.404a29.642 29.642 0 0 1-.15-.45l-.09.028-.012.205-.041.006c-.057-.225-.114-.449-.169-.674zm21.722-11.838c-.095.031-.255.094-.114.281.146.196.324.364.496.538.034.033.094.039.143.059a.549.549 0 0 0 .035-.054c-.179-.269-.364-.536-.56-.824zm4.252 8.576c.077-.096.053-.619-.073-.748-.06-.062-.173-.072-.266-.105l-.032.074.371.779zm-4.617 10.477l.637.345c.021-.036.066-.112.109-.19-.113-.058-.229-.077-.27-.144-.157-.247-.298-.138-.476-.011zm1.79-.855c-.256-.195-.449-.346-.667-.514 0 .423.07.478.667.514zm-22.424-3.454c-.05-.707-.149-.959-.362-1.056.119.344.243.7.362 1.056zm3.722-14.929c.476.103.476.103.578-.096-.294-.143-.416-.127-.578.096zm.879 21.222a.477.477 0 0 0 .037-.059c-.125-.113-.245-.23-.378-.334-.042-.033-.115-.027-.171-.039.011.068-.001.176.035.199.153.093.319.158.477.233zm18.555-17.753c-.099-.099-.196-.199-.301-.287-.021-.017-.104.01-.129.04-.024.027-.031.099-.011.132.099.176.234.259.441.115zm-22.08 13.341c-.027.02-.053.039-.077.059.146.221.298.438.446.658.032-.025.068-.049.104-.073-.159-.214-.315-.429-.473-.644zm19.57 2.865c-.016-.059-.032-.12-.05-.181a36.96 36.96 0 0 0-.393.11c.03.062.073.184.093.182.12-.021.234-.069.35-.111zm2.164-16.642l.062-.07-.534-.447a4.99 4.99 0 0 0-.091.113c.189.134.377.269.563.404zm-19.06-2.693l-.446.152.387.231.059-.383zm21.546 7.554c-.053-.179-.087-.29-.124-.433-.139.048-.248.088-.362.129a.841.841 0 0 1 .019.087c.076.016.154.02.223.05.063.027.116.079.244.167zm-3.014-5.931l.099-.088-.473-.498c-.02.02-.045.041-.063.061l.437.525zM30.236 47.103c-.021.043-.039.086-.059.129.203.089.406.178.607.268.013-.027.026-.055.036-.081l-.584-.316zm-.164-8.706v-4.756c.019-.136.048-.271.054-.407.09-1.534 1.065-2.694 2.553-3.017.314-.068.639-.096.96-.143h4.756c.125.018.249.047.377.053 1.762.098 3.074 1.368 3.119 3.126.046 1.85.048 3.702-.003 5.552-.045 1.729-1.354 3.039-3.084 3.086a110.47 110.47 0 0 1-5.581 0c-1.535-.037-2.703-1.07-3.013-2.56-.066-.307-.093-.623-.138-.934zm5.949 2.442v-.002c.871 0 1.743.021 2.614-.008.708-.022 1.339-.267 1.773-.871.293-.406.42-.877.425-1.369.01-1.693.031-3.387-.004-5.079-.026-1.45-.838-2.272-2.28-2.306a114.799 114.799 0 0 0-5.048 0c-1.459.032-2.268.838-2.299 2.287a119.394 119.394 0 0 0 0 5.078c.031 1.408.86 2.217 2.265 2.265.849.029 1.702.005 2.554.005zm-.032-1.774a3.027 3.027 0 0 1-3.022-3.08 3.03 3.03 0 0 1 3.088-3.016 3.03 3.03 0 0 1 3.009 3.065 3.031 3.031 0 0 1-3.075 3.031zm1.996-3.042a1.954 1.954 0 0 0-1.973-1.976 1.951 1.951 0 0 0-1.968 1.979 1.953 1.953 0 0 0 1.957 1.961 1.953 1.953 0 0 0 1.984-1.964zm1.199-3.885a.69.69 0 0 1 .712.705.716.716 0 0 1-.707.723.742.742 0 0 1-.725-.716.717.717 0 0 1 .72-.712z"/></svg>