<svg xmlns="http://www.w3.org/2000/svg" width="72" height="72" viewBox="0 0 72 72"><path fill="#E5DDD8" d="M39.179 31.908l-1.152.001c-.905 0-1.077.429-1.077 1.06v1.391h2.154l-.279 2.178H36.95v5.588H34.7v-5.588h-1.881V34.36H34.7v-1.605c0-1.865 1.139-2.879 2.799-2.879.797 0 1.482.059 1.681.086v1.946zM37.095 49.08l.083-.169c-.266-.223-.453-.153-.775.345-.055-.157-.098-.275-.133-.379l-.689-.045c-.321-.02-.485.379-.268.768-.112-.004-.248.029-.279-.014a.382.382 0 0 1-.043-.293c.035-.14.119-.268.182-.398-.224-.134-.322-.073-.388.239-.038.163-.049.458-.109.47-.199.033-.417-.025-.622-.07-.162-.037-.371-.062-.458-.173-.081-.104-.032-.312-.041-.495a7.37 7.37 0 0 1-.193.026c.179.649-.187.459-.521.366.027-.139.057-.253.069-.367.017-.12.017-.241.024-.361-.17 0-.316-.152-.514.001-.205.159-.436.019-.469-.284a16.33 16.33 0 0 0-.178.18c-.041-.111-.074-.203-.123-.332l-.584.094.107.46-.107.026-.073-.143-.554-.033c.062-.156.005-.265.233-.234.276.037.128-.258.177-.389-.281-.129-.553-.256-.869-.398-.068.195-.14.396-.215.604-.209-.049-.423-.069-.48-.338-.014-.062-.1-.123-.166-.154-.225-.1-.584-.129-.654-.289-.168-.377-.578-.161-.783-.44-.191-.261-.517-.421-.76-.65a9.868 9.868 0 0 1-.677-.737c-.45-.523-.896-1.053-1.336-1.582-.031-.035-.031-.092-.042-.145l.242.038c-.125-.125-.223-.222-.314-.315l-.036.104c-.278-.057-1.339-2.283-1.208-2.649.105.251.18.435.257.628.04-.057.091-.127.149-.212.113.206.221.397.327.592-.149-.432-.194-.903-.454-1.284a1.867 1.867 0 0 1-.08.023c-.005.113-.008.229-.01.342l-.053.006c-.1-.227-.197-.453-.307-.697l-.18.109c-.318-.589-.341-1.242-.456-1.873.407.184.252.634.491.907.009-.065.02-.133.027-.199l.045-.01.131.46c.029-.012.059-.022.088-.033-.137-.383.01-.877-.5-1.041.094-.123.2-.198.195-.268-.008-.152-.072-.299-.137-.531.195-.329.082-.914-.301-1.152-.014.012-.043.029-.041.036.08.284.168.566.238.853.018.072.002.217-.031.229-.312.107-.111.207-.014.322.049.057.07.135.104.203-.084.031-.168.089-.248.084-.052-.002-.135-.095-.142-.152-.05-.693-.106-1.388-.124-2.082-.012-.467.006-.938.059-1.4a31.21 31.21 0 0 1 .326-2.216c.102-.542.258-1.077.404-1.61.096-.338.217-.67.332-1 .018-.051.084-.08.105-.13.078-.157.146-.319.211-.481.043-.107.062-.229.117-.33.404-.76.934-1.428 1.524-2.05a16.022 16.022 0 0 1 2.884-2.397c.684-.447 1.404-.873 2.168-1.162.869-.332 1.797-.541 2.715-.727a14.493 14.493 0 0 1 2.277-.275c1.236-.055 2.467.041 3.656.42.861.273 1.742.496 2.57.844.592.248 1.116.658 1.662 1.016.432.285.875.565 1.266.902.549.473 1.066.984 1.572 1.502.307.314.576.666.846 1.015.148.193.26.415.363.636l-1.543-1.716c-.039.028-.081.057-.117.085.036.084.061.186.121.249.805.857 1.409 1.856 1.953 2.886.33.622.559 1.299.82 1.955.322.802.4 1.656.529 2.5.232 1.525.124 3.036-.199 4.533a12.38 12.38 0 0 1-.476 1.566c-.22.606-.444 1.217-.731 1.795a8.893 8.893 0 0 1-.906 1.443c-.473.621-1.004 1.2-1.518 1.793-.07.082-.177.134-.27.203-.259-.493-.365-.574-.58-.447l.594.5c-.264.232-.49.461-.744.65-.319.24-.717.399-.982.684-.346.373-.837.447-1.219.732-.219.161-.387.084-.534-.166-.065-.109-.151-.206-.238-.322l-.28.109-.189-.324c.499-.315.961-.716 1.501-.924.753-.293 1.282-.852 1.89-1.322.145-.113.274-.251.398-.389.733-.824 1.46-1.652 1.928-2.671.297-.65.633-1.282.916-1.938.107-.253.111-.549.168-.824.092-.439.234-.873.275-1.315.07-.768.096-1.54.106-2.312.007-.4-.023-.809-.099-1.203-.086-.453-.233-.896-.365-1.34-.084-.277-.219-.549.065-.849-.304.159-.337.007-.345-.192.068-.02.143-.039.256-.072l-.219-.205c.199-.46-.246-.713-.369-1.075l-.006.369c-.22-.39-.396-.706-.607-1.077l.206.042c.005-.03.021-.065.009-.081-.27-.351-.188-.783-.27-1.177-.012-.05.074-.116.07-.173-.006-.076-.061-.215-.08-.213-.129.016-.256.062-.403.104.282.246.354.554.09.941-.075-.338-.147-.652-.234-1.035-.089.103-.12.169-.171.188-.072.027-.195.056-.232.021-.053-.053-.093-.195-.059-.243.107-.146.092-.243-.072-.335-.023.066-.047.139-.088.254-.211-.246-.398-.461-.578-.684-.016-.02.029-.091.054-.159-.05-.051-.14-.138-.236-.233-.267.102-.442.018-.538-.297.09.016.171.029.252.045.012-.014.022-.028.036-.043-.063-.057-.116-.134-.19-.161-.041-.017-.115.05-.18.082-.207-.132-.439-.282-.674-.428-.258-.161-.5-.319-.549-.671-.016-.102-.188-.182-.288-.272l-.015.093c-.195-.003-.42.06-.578-.018-.467-.227-.9-.516-1.358-.76-.099-.054-.248-.004-.362-.039-.549-.17-1.09-.373-1.645-.521-.213-.058-.458.005-.686.003a2.217 2.217 0 0 1-.383-.033c-.223-.045-.442-.104-.718-.169l.293-.19c-.259-.155-.259-.155-.46.209-.438.004-.863.004-1.289.014-.033 0-.076.038-.092.07-.161.338-.314.045-.389-.039-.085-.094-.139-.256.037-.395.141-.113.227-.293.361-.477-.271-.066-.393.032-.47.191-.089.186-.122.411-.253.555-.105.119-.314.158-.486.204-.047.014-.125-.064-.187-.104-.039-.023-.071-.055-.106-.082-.004.057-.01.115-.012.135-.188.111-.363.232-.555.316-.074.033-.187-.023-.305-.081.395-.052.242-.399.383-.603l-.49-.084c.006.166-.008.316.021.457.063.3-.018.412-.33.437-.089.007-.178.046-.223.06l-.104-.609c-.154.034-.306.068-.46.104 0 .027.002.055.004.082.119.033.238.068.348.1-.088.384-.352.566-.684.658-.15.043-.316.03-.526.047.005-.009-.019.057-.053.158-.069-.094-.161-.17-.147-.209.139-.398-.138-.309-.366-.269l-.005-.319-.464.131c.003.029.008.059.009.088l.379.036a43.14 43.14 0 0 0-.208.269l.62.253-.017.09c-.194.09-.341.343-.628.155-.022-.016-.162.07-.161.104.017.275-.177.272-.36.316-.094.021-.17.107-.256.162s-.172.147-.256.148c-.061 0-.125-.123-.182-.195-.146-.182-.287-.365-.457-.58-.043.277.269.729.6.898-.103.088-.191.165-.282.241-.28.241-.554.493-.85.718-.079.061-.218.042-.332.06l-.252-.376c-.032.008-.063.014-.094.02-.004.105-.004.211-.005.316l-.131-.082a75.743 75.743 0 0 0-.355-.396c-.107.479.361.424.463.656.004.006.033 0 .061-.002a5.16 5.16 0 0 0 .027-.195l.293.049c-.034.139-.03.312-.113.413-.223.278-.479.531-.734.786-.062.062-.154.092-.209.124-.035.108-.043.237-.109.321-.46.602-.871 1.231-1.162 1.929-.315.748-.572 1.516-.879 2.265-.053.129-.209.233-.342.303-.16.086-.33.129-.16.332l.266-.074c.018.1.066.205.047.298a10.596 10.596 0 0 0-.119 3.716c.075.506.119 1.022.256 1.512.182.635.412 1.256.672 1.863.203.476.48.92.721 1.381.068.133.135.249.041.427-.098.19.01.415.221.437.396.039.549.357.763.593.317.347.562.767.906 1.079.443.406.938.762 1.443 1.096.655.436 1.335.829 2.009 1.233.098.06.221.077.327.125a.25.25 0 0 1 .11.108c.023.047.021.107.029.162l.195-.137c.125.068.263.146.4.223.331.051.719-.014.908.436.197-.352.459-.093.691-.109l.02.221c.243-.27.549-.209.795-.137.93.267 1.871.205 2.81.15a11.25 11.25 0 0 0 1.944-.297c.513-.121 1.002-.354 1.504-.527.093-.031.207-.011.309-.014-.018.117-.025.238-.057.352-.014.051-.072.089-.182.215.233.006.385 0 .535.015.178.021.352.056.527.086-.131.116-.246.255-.393.345-.326.207-.457.162-.658-.184-.16.018-.33.02-.491.055-.228.051-.316.203-.281.436.014.083-.005.17-.009.255-.099-.028-.271-.039-.285-.091-.14-.537-.464-.348-.777-.217-.079.031-.154.066-.244.105.116.117.209.207.318.316-.543.254-.752.297-1.053-.021.164-.134.332-.26.483-.403.056-.051.069-.143.103-.215-.068-.018-.143-.023-.205-.054-.391-.194-.473.288-.754.343-.129.022-.244.1-.367.152l.012-.007zm-2.497-.269c-.084-.311-.26-.447-.491-.381-.231.064-.388.293-.333.487.094.339.254.503.438.447.315-.096.456-.297.386-.553zm-6.014-1.885l-.045.062c.264.172.521.354.795.509.072.039.188-.006.283-.014-.076-.119-.209-.351-.221-.346-.295.157-.277-.164-.414-.179-.132-.011-.265-.02-.398-.032zm2.305-22.389c.297.074.56-.031.622-.259-.03.005-.058.013-.085.014-.075.001-.15-.001-.225-.003.044-.062.08-.139.137-.184.076-.06.172-.094.257-.139l-.04-.099-.961.335.035.102c.09-.031.178-.082.273-.09.172-.011.162.156-.013.323zm2.287-1.082c.277.447.608.488.924.101-.334.052-.575-.251-.924-.101zm15.836 12.967l.119-.013c-.002-.077.004-.153-.004-.231-.006-.076-.041-.153-.037-.229.027-.416.031-.416-.383-.479.025.162.047.316.074.471l.092-.014c.016-.066.03-.134.047-.2l.038.002.054.693zM25.59 44.383c.098-.016.266-.051.16-.258-.111-.217-.26-.414-.398-.614-.026-.039-.086-.056-.129-.083-.018.016-.03.032-.045.048l.412.907zm-2.725-9.177c-.096.081-.16.601-.059.749.049.072.16.102.242.15l.049-.067c-.079-.28-.158-.559-.232-.832zm6.33-9.536c-.188-.148-.359-.285-.566-.447l-.139.168c.102.076.211.116.24.188.113.269.27.187.465.091zm-1.904.538l.568.62c.075-.416.012-.484-.568-.62zm21.502 7.227c-.068.704-.012.972.18 1.103l-.18-1.103zM42.58 47.51c-.449-.182-.449-.182-.587-.004.269.192.39.197.587.004zm2.754-21.061c-.018.017-.031.035-.047.053.104.132.203.268.316.393.035.039.107.046.162.068 0-.069.031-.173-.002-.203-.132-.116-.284-.209-.429-.311zM24.023 40.777c.082.114.158.23.248.334.018.021.102.01.135-.017.027-.022.045-.092.033-.128-.068-.191-.187-.294-.416-.189zm24.032-9.379c.029-.016.061-.029.088-.045-.109-.242-.221-.482-.326-.725l-.116.055c.117.239.235.477.354.715zm-18.796-6.162l.022.188.402-.041c-.02-.068-.04-.194-.059-.195-.122 0-.241.029-.365.048zm-4.97 16.03c-.023.021-.048.039-.071.061l.45.531c.035-.031.073-.063.107-.096-.16-.165-.324-.33-.486-.496zm18.322 5.906l.466-.074-.341-.293c-.025.07-.061.174-.125.367zM22.672 36.054l.049.447.377-.065c-.003-.029-.004-.061-.008-.09-.068-.027-.146-.045-.207-.086-.058-.037-.102-.098-.211-.206zm1.957 6.358l-.113.069.381.571.074-.048c-.116-.197-.229-.395-.342-.592zm18.955-16.343l.082-.117-.555-.366a2.317 2.317 0 0 0-.049.072l.522.411z"/></svg>