<svg xmlns="http://www.w3.org/2000/svg" width="72" height="72" viewBox="0 0 72 72"><path fill="#E5DDD8" d="M36.946 38.729c-.759 0-1.475-.411-1.718-.878 0 0-.409 1.622-.496 1.936-.304 1.105-1.2 2.211-1.271 2.302-.048.063-.154.044-.168-.04-.018-.141-.247-1.536.023-2.674l.904-3.834s-.224-.449-.224-1.113c0-1.043.606-1.822 1.356-1.822.639 0 .949.481.949 1.057 0 .644-.408 1.605-.621 2.497-.178.747.373 1.355 1.111 1.355 1.332 0 2.23-1.712 2.23-3.741 0-1.542-1.039-2.697-2.928-2.697-2.135 0-3.466 1.593-3.466 3.371 0 .613.182 1.045.466 1.38.132.153.148.216.1.392-.034.131-.109.441-.143.565-.047.178-.193.241-.354.176-.982-.401-1.439-1.479-1.439-2.688 0-1.999 1.686-4.396 5.029-4.396 2.688 0 4.453 1.943 4.453 4.032.004 2.758-1.531 4.82-3.793 4.82m-4.238-15.407l-.053.181c.299.174.473.074.705-.473.082.146.145.256.195.353l.686-.075c.322-.036.416-.456.133-.801.113-.016.242-.071.277-.034a.38.38 0 0 1 .095.281c-.011.144-.071.284-.111.424.244.093.331.017.343-.303.008-.167-.031-.459.027-.48.189-.067.414-.047.625-.037.164.008.375-.001.479.092.1.089.086.303.127.481l.184-.059c-.285-.61.105-.484.451-.45-.002.141-.012.259-.006.374.006.12.025.24.039.36.166-.029.338.095.506-.089.176-.192.426-.093.51.2l.145-.208.178.306.561-.191c-.078-.187-.131-.311-.184-.435l.102-.044c.044.061.088.122.094.128l.551-.062c-.034.166.041.262-.188.271-.277.011-.084.276-.109.414.301.078.59.156.926.244.033-.204.07-.415.109-.632.213.013.426-.003.528.252.024.058.12.104.192.122.238.06.596.028.692.175.23.341.599.06.847.3.232.225.581.326.859.512.276.183.535.398.793.611.532.438 1.062.883 1.59 1.33.031.03.042.088.064.136l-.246.004c.143.103.256.181.363.257l.018-.107c.285.008 1.709 2.021 1.642 2.404-.144-.229-.25-.397-.36-.575l-.111.235a88.255 88.255 0 0 1-.422-.528c.221.399.345.857.666 1.188l.074-.037-.046-.338a.673.673 0 0 1 .048-.015l.421.634.159-.137c.416.525.547 1.164.771 1.766-.436-.11-.359-.58-.641-.81l.006.202-.043.016c-.068-.143-.138-.287-.205-.43l-.083.047c.199.355.14.865.673.941-.076.137-.165.229-.15.297.035.147.125.281.229.498-.137.358.072.917.49 1.086.016-.015.037-.036.037-.043-.128-.267-.266-.529-.383-.799-.029-.068-.037-.213-.006-.23.289-.159.074-.224-.045-.32-.057-.047-.088-.121-.135-.183.078-.046.15-.116.23-.126.051-.006.151.07.166.127.168.675.34 1.35.477 2.031.092.457.154.924.182 1.39.043.745.065 1.493.057 2.238-.008.552-.07 1.104-.125 1.657-.035.348-.1.695-.156 1.041-.008.052-.068.094-.084.146a7.42 7.42 0 0 0-.123.51c-.025.113-.023.236-.061.345-.266.817-.676 1.567-1.15 2.28a16.195 16.195 0 0 1-2.434 2.854c-.597.559-1.237 1.102-1.933 1.515-.806.476-1.685.839-2.557 1.181-.71.277-1.45.495-2.196.658-1.209.266-2.438.381-3.676.209-.895-.121-1.801-.19-2.677-.391-.625-.145-1.212-.459-1.81-.719-.475-.207-.959-.407-1.4-.674a25.308 25.308 0 0 1-1.808-1.211c-.354-.256-.682-.559-1.005-.855a3.28 3.28 0 0 1-.467-.564c.604.476 1.21.951 1.812 1.428.035-.035.07-.07.102-.105-.051-.074-.091-.171-.162-.224-.939-.708-1.705-1.589-2.416-2.509-.432-.559-.771-1.187-1.143-1.788-.453-.734-.678-1.564-.947-2.374-.488-1.462-.639-2.969-.576-4.5.023-.543.107-1.086.199-1.623.115-.636.232-1.276.416-1.895a8.954 8.954 0 0 1 .646-1.576c.36-.693.786-1.354 1.19-2.025.057-.094.15-.162.23-.246.342.44.459.502.648.342-.207-.123-.412-.242-.67-.393.223-.273.404-.536.623-.768.273-.291.638-.516.852-.841.277-.426.749-.584 1.076-.929.186-.196.365-.148.555.072.082.098.182.178.288.277l.257-.155.243.287c-.437.396-.825.87-1.321 1.167-.691.417-1.118 1.058-1.635 1.625a3.006 3.006 0 0 0-.326.451c-.584.938-1.158 1.877-1.445 2.961-.182.691-.406 1.372-.573 2.066-.062.268-.015.559-.024.84-.016.449-.082.9-.047 1.344.062.768.168 1.533.288 2.295.063.396.165.793.304 1.17.161.431.382.843.59 1.258.127.259.306.503.078.848.271-.21.332-.064.373.129l-.24.116.252.165c-.119.486.363.66.547.996l-.059-.365.783.958-.212-.006c.003.03-.007.067.007.081.325.299.318.74.467 1.113.02.047-.053.127-.041.182.019.075.096.203.115.196.125-.037.243-.104.381-.17-.32-.194-.445-.485-.25-.913l.405.98c.073-.115.093-.187.138-.215.069-.039.184-.089.227-.059.061.042.123.176.1.229-.08.162-.048.255.127.318l.045-.266c.249.207.471.386.686.574.02.018-.014.096-.026.168.06.039.161.111.271.188.247-.145.435-.092.583.201h-.256a.565.565 0 0 0-.027.047c.07.045.137.113.215.127.043.009.104-.068.162-.111.226.095.482.203.736.307.281.115.55.229.656.566.031.098.217.148.329.22l-.001-.093c.193-.031.403-.131.574-.082.496.144.975.354 1.467.518.107.035.246-.039.362-.023.571.074 1.14.181 1.711.232.22.02.448-.082.674-.121.128-.02.257-.034.386-.031.225.005.451.025.736.043l-.26.238c.283.108.283.108.418-.285.432-.077.852-.151 1.27-.232.031-.007.07-.051.078-.086.098-.359.302-.096.389-.027.099.078.18.229.031.396-.119.134-.174.326-.275.53.279.019.381-.099.432-.269.055-.197.049-.426.152-.59.086-.136.285-.209.445-.285.047-.021.135.043.201.072.041.016.082.041.12.062a1.326 1.326 0 0 0-.013-.135c.168-.141.318-.291.492-.406.068-.045.189-.01.313.027-.377.119-.169.436-.272.66.148 0 .289 0 .498-.002-.035-.162-.047-.312-.1-.445-.113-.286-.053-.409.25-.487.088-.022.168-.077.211-.097l.205.582.438-.18c-.008-.027-.013-.053-.019-.08l-.36-.039c.021-.393.25-.619.562-.765.141-.068.307-.085.51-.136-.002.01.008-.06.025-.166.082.081.188.139.18.182-.068.416.189.28.406.201l.062.313c.155-.075.293-.142.432-.207a1.316 1.316 0 0 1-.021-.085c-.114.01-.227.017-.379.027.064-.121.109-.209.16-.299-.229-.05-.441-.098-.656-.144v-.091c.178-.123.281-.396.592-.26.024.011.15-.098.143-.131-.065-.268.129-.298.301-.373.088-.037.15-.135.225-.203s.143-.174.229-.189c.057-.01.143.1.211.162.174.153.346.31.549.492-.004-.281-.391-.672-.746-.781l.238-.287c.234-.286.463-.58.712-.853.069-.073.212-.078.319-.115l.312.327.09-.035c-.016-.104-.031-.207-.049-.312.047.021.093.039.142.059.123.099.246.196.419.331.023-.491-.428-.356-.569-.567-.002-.006-.032.006-.06.011.004.062.006.125.008.197l-.298.003c.011-.144-.022-.312.042-.427.172-.312.383-.604.588-.898.052-.073.139-.119.188-.159.015-.113.001-.24.05-.336.354-.67.653-1.362.818-2.099.182-.79.306-1.591.479-2.382.029-.135.166-.266.285-.357.146-.109.302-.182.102-.353l-.25.118c-.033-.096-.1-.191-.098-.285a10.596 10.596 0 0 0-.516-3.682c-.158-.486-.29-.987-.508-1.445a15.667 15.667 0 0 0-.981-1.723c-.28-.434-.63-.824-.944-1.237-.092-.118-.176-.222-.114-.413.065-.204-.079-.408-.291-.393-.398.028-.603-.26-.854-.455-.369-.288-.684-.659-1.076-.909-.506-.325-1.057-.59-1.609-.833-.719-.316-1.455-.589-2.19-.873-.104-.042-.229-.038-.343-.068a.248.248 0 0 1-.127-.088c-.031-.042-.039-.102-.057-.154l-.169.167c-.134-.047-.283-.1-.433-.151-.336.007-.705.136-.969-.274-.133.38-.436.17-.664.226-.018-.072-.035-.133-.057-.215-.193.308-.504.299-.758.272-.961-.105-1.881.117-2.795.33-.637.149-1.264.369-1.865.625-.486.207-.928.521-1.393.775-.089.047-.201.046-.303.066-.003-.119-.014-.239-.003-.356.005-.051.056-.1.142-.241-.229.034-.381.065-.529.075-.178.011-.355.004-.532.006.106-.138.198-.292.325-.407.287-.258.425-.237.682.069.158-.044.32-.076.475-.138.215-.088.275-.254.199-.477-.023-.079-.021-.168-.035-.253.105.011.278-.007.301.041.227.505.516.263.804.081l.22-.146-.365-.256c.488-.343.689-.421 1.039-.16-.139.161-.282.312-.409.479-.044.06-.042.152-.062.23.07.005.145-.001.211.018.418.125.416-.365.686-.465.121-.045.223-.142.333-.215l-.011-.001zm2.507-.16c.14.292.332.395.549.292.217-.104.333-.355.246-.538-.151-.318-.337-.453-.509-.366-.295.149-.397.37-.286.612zm6.247.831c.012-.023.023-.045.033-.068-.289-.124-.572-.259-.869-.366-.076-.026-.186.038-.278.062.098.105.269.309.277.303.265-.205.302.115.439.105l.398-.036zm1.549 22.453c-.307-.021-.545.127-.57.361.029-.01.055-.021.082-.027.073-.014.146-.024.221-.036-.033.069-.055.15-.104.205-.064.071-.152.122-.23.181l.059.09.891-.494-.053-.094c-.084.046-.162.111-.254.135-.167.041-.189-.125-.042-.321zm-2.071 1.457c-.35-.394-.682-.377-.929.059.322-.108.611.148.929-.059zM23.124 37.827a2.17 2.17 0 0 0-.115.033c.016.075.023.151.043.227.021.074.068.145.074.221.047.414.043.414.461.404a29.642 29.642 0 0 1-.15-.45l-.09.028-.012.205-.041.006-.17-.674zm21.723-11.838c-.096.031-.254.094-.114.281.146.196.325.364.497.538.033.033.094.039.143.059l.035-.054c-.18-.269-.364-.536-.561-.824zm4.252 8.576c.078-.096.053-.619-.072-.748-.061-.062-.174-.072-.266-.105a.98.98 0 0 0-.033.074l.371.779zm-4.616 10.477l.637.345c.02-.036.066-.112.109-.19-.114-.058-.23-.077-.271-.144-.156-.247-.298-.138-.475-.011zm1.788-.855c-.256-.195-.448-.346-.667-.514 0 .423.071.478.667.514zm-22.423-3.454c-.05-.707-.149-.959-.362-1.056.118.344.243.7.362 1.056zm3.723-14.929c.475.103.475.103.577-.096-.294-.143-.416-.127-.577.096zm.878 21.222c.014-.02.028-.039.038-.059-.125-.113-.246-.23-.379-.334-.041-.033-.115-.027-.17-.039.01.068-.002.176.035.199.151.093.317.158.476.233zm18.556-17.753c-.1-.099-.197-.199-.301-.287-.022-.017-.104.01-.129.04-.025.027-.033.099-.012.132.1.176.234.259.442.115zm-22.08 13.341l-.078.059c.146.221.299.438.445.658.033-.025.07-.049.104-.073l-.471-.644zm19.57 2.865l-.051-.181-.393.11c.03.062.073.184.094.182.119-.021.233-.069.35-.111zm2.164-16.642l.061-.07-.533-.447a5.031 5.031 0 0 0-.092.113c.189.134.377.269.564.404zm-19.06-2.693l-.447.152.387.231.06-.383zm21.545 7.554c-.053-.179-.086-.29-.125-.433l-.361.129c.008.028.014.058.02.087.074.016.153.02.223.05.062.027.115.079.243.167zm-3.014-5.931l.099-.088-.472-.498c-.021.02-.047.041-.064.061l.437.525zM30.237 47.103l-.059.129c.203.089.406.178.607.268l.037-.081c-.194-.106-.39-.211-.585-.316z"/></svg>